<mxfile host="app.diagrams.net" agent="Mozilla/5.0 (Windows NT 10.0; Win64; x64) AppleWebKit/537.36 (KHTML, like Gecko) Chrome/139.0.0.0 Safari/537.36" version="28.1.0">
  <diagram name="Página-1" id="fv4Xex71aHvnuy3qUb6k">
    <mxGraphModel dx="2037" dy="1070" grid="1" gridSize="10" guides="1" tooltips="1" connect="1" arrows="1" fold="1" page="1" pageScale="1" pageWidth="827" pageHeight="1169" math="0" shadow="0">
      <root>
        <mxCell id="0" />
        <mxCell id="1" parent="0" />
        <mxCell id="PxeA5dOEUCCF_qrA4TxW-88" value="Modulo Control de Transporte" style="swimlane;horizontal=0;whiteSpace=wrap;html=1;" vertex="1" parent="1">
          <mxGeometry x="10" y="50" width="950" height="1000" as="geometry">
            <mxRectangle x="10" y="50" width="40" height="190" as="alternateBounds" />
          </mxGeometry>
        </mxCell>
        <mxCell id="PxeA5dOEUCCF_qrA4TxW-96" value="" style="rounded=0;whiteSpace=wrap;html=1;" vertex="1" parent="PxeA5dOEUCCF_qrA4TxW-88">
          <mxGeometry x="40" y="460" width="150" height="110" as="geometry" />
        </mxCell>
        <mxCell id="PxeA5dOEUCCF_qrA4TxW-29" value="Tramitador" style="shape=umlActor;verticalLabelPosition=bottom;verticalAlign=top;html=1;outlineConnect=0;fillColor=#dae8fc;strokeColor=#6c8ebf;" vertex="1" parent="PxeA5dOEUCCF_qrA4TxW-88">
          <mxGeometry x="100" y="480" width="30" height="60" as="geometry" />
        </mxCell>
        <mxCell id="PxeA5dOEUCCF_qrA4TxW-97" value="Entidades del Flujo de Proceso" style="rounded=0;whiteSpace=wrap;html=1;" vertex="1" parent="PxeA5dOEUCCF_qrA4TxW-88">
          <mxGeometry x="40" y="420" width="150" height="40" as="geometry" />
        </mxCell>
        <mxCell id="PxeA5dOEUCCF_qrA4TxW-89" value="" style="ellipse;whiteSpace=wrap;html=1;aspect=fixed;fillColor=#f8cecc;strokeColor=#b85450;" vertex="1" parent="PxeA5dOEUCCF_qrA4TxW-88">
          <mxGeometry x="790" y="430" width="60" height="60" as="geometry" />
        </mxCell>
        <mxCell id="PxeA5dOEUCCF_qrA4TxW-93" style="edgeStyle=orthogonalEdgeStyle;rounded=0;orthogonalLoop=1;jettySize=auto;html=1;exitX=0.5;exitY=0;exitDx=0;exitDy=0;entryX=0.5;entryY=1;entryDx=0;entryDy=0;" edge="1" parent="PxeA5dOEUCCF_qrA4TxW-88" source="PxeA5dOEUCCF_qrA4TxW-91" target="PxeA5dOEUCCF_qrA4TxW-89">
          <mxGeometry relative="1" as="geometry" />
        </mxCell>
        <mxCell id="PxeA5dOEUCCF_qrA4TxW-91" value="Se registra la instrucción de embarque" style="rounded=0;whiteSpace=wrap;html=1;fillColor=#dae8fc;strokeColor=#6c8ebf;" vertex="1" parent="PxeA5dOEUCCF_qrA4TxW-88">
          <mxGeometry x="760" y="530" width="120" height="60" as="geometry" />
        </mxCell>
        <mxCell id="PxeA5dOEUCCF_qrA4TxW-22" value="Selecciona Transporte que tiene convenio con Agencia Aduanal" style="rounded=0;whiteSpace=wrap;html=1;fontSize=10;fillColor=#dae8fc;strokeColor=#6c8ebf;" vertex="1" parent="PxeA5dOEUCCF_qrA4TxW-88">
          <mxGeometry x="320" y="450" width="120" height="60" as="geometry" />
        </mxCell>
        <mxCell id="PxeA5dOEUCCF_qrA4TxW-48" style="edgeStyle=orthogonalEdgeStyle;rounded=0;orthogonalLoop=1;jettySize=auto;html=1;exitX=0.5;exitY=1;exitDx=0;exitDy=0;" edge="1" parent="PxeA5dOEUCCF_qrA4TxW-88" source="PxeA5dOEUCCF_qrA4TxW-20" target="PxeA5dOEUCCF_qrA4TxW-45">
          <mxGeometry relative="1" as="geometry" />
        </mxCell>
        <mxCell id="PxeA5dOEUCCF_qrA4TxW-20" value="Selecciona Transporte Puesto por Cliente" style="rounded=0;whiteSpace=wrap;html=1;fontSize=10;fillColor=#dae8fc;strokeColor=#6c8ebf;" vertex="1" parent="PxeA5dOEUCCF_qrA4TxW-88">
          <mxGeometry x="465" y="450" width="120" height="60" as="geometry" />
        </mxCell>
        <mxCell id="PxeA5dOEUCCF_qrA4TxW-47" style="edgeStyle=orthogonalEdgeStyle;rounded=0;orthogonalLoop=1;jettySize=auto;html=1;exitX=0.5;exitY=1;exitDx=0;exitDy=0;entryX=0.5;entryY=0;entryDx=0;entryDy=0;" edge="1" parent="PxeA5dOEUCCF_qrA4TxW-88" source="PxeA5dOEUCCF_qrA4TxW-22" target="PxeA5dOEUCCF_qrA4TxW-43">
          <mxGeometry relative="1" as="geometry" />
        </mxCell>
        <mxCell id="PxeA5dOEUCCF_qrA4TxW-46" style="edgeStyle=orthogonalEdgeStyle;rounded=0;orthogonalLoop=1;jettySize=auto;html=1;exitX=0.5;exitY=1;exitDx=0;exitDy=0;entryX=0.5;entryY=0;entryDx=0;entryDy=0;" edge="1" parent="PxeA5dOEUCCF_qrA4TxW-88" source="PxeA5dOEUCCF_qrA4TxW-27" target="PxeA5dOEUCCF_qrA4TxW-44">
          <mxGeometry relative="1" as="geometry" />
        </mxCell>
        <mxCell id="PxeA5dOEUCCF_qrA4TxW-27" value="Selecciona Transporte Puesto por Naviera" style="rounded=0;whiteSpace=wrap;html=1;fontSize=10;fillColor=#dae8fc;strokeColor=#6c8ebf;" vertex="1" parent="PxeA5dOEUCCF_qrA4TxW-88">
          <mxGeometry x="610" y="450" width="120" height="60" as="geometry" />
        </mxCell>
        <mxCell id="PxeA5dOEUCCF_qrA4TxW-60" style="edgeStyle=orthogonalEdgeStyle;rounded=0;orthogonalLoop=1;jettySize=auto;html=1;exitX=0.5;exitY=1;exitDx=0;exitDy=0;entryX=0.5;entryY=0;entryDx=0;entryDy=0;" edge="1" parent="PxeA5dOEUCCF_qrA4TxW-88" source="PxeA5dOEUCCF_qrA4TxW-43" target="PxeA5dOEUCCF_qrA4TxW-59">
          <mxGeometry relative="1" as="geometry" />
        </mxCell>
        <mxCell id="PxeA5dOEUCCF_qrA4TxW-43" value="El transportista factura a Alcance&lt;br&gt;Por tanto se pone el RFC de Alcance" style="rounded=0;whiteSpace=wrap;html=1;fontSize=10;fillColor=#dae8fc;strokeColor=#6c8ebf;" vertex="1" parent="PxeA5dOEUCCF_qrA4TxW-88">
          <mxGeometry x="317.5" y="530" width="120" height="60" as="geometry" />
        </mxCell>
        <mxCell id="PxeA5dOEUCCF_qrA4TxW-68" style="edgeStyle=orthogonalEdgeStyle;rounded=0;orthogonalLoop=1;jettySize=auto;html=1;exitX=0.5;exitY=1;exitDx=0;exitDy=0;entryX=0.5;entryY=0;entryDx=0;entryDy=0;" edge="1" parent="PxeA5dOEUCCF_qrA4TxW-88" source="PxeA5dOEUCCF_qrA4TxW-44" target="PxeA5dOEUCCF_qrA4TxW-67">
          <mxGeometry relative="1" as="geometry" />
        </mxCell>
        <mxCell id="PxeA5dOEUCCF_qrA4TxW-44" value="El transportista factura a Cliente&lt;br&gt;Por tanto se pone el RFC de Cliente" style="rounded=0;whiteSpace=wrap;html=1;fontSize=10;fillColor=#dae8fc;strokeColor=#6c8ebf;" vertex="1" parent="PxeA5dOEUCCF_qrA4TxW-88">
          <mxGeometry x="610" y="530" width="120" height="60" as="geometry" />
        </mxCell>
        <mxCell id="PxeA5dOEUCCF_qrA4TxW-70" style="edgeStyle=orthogonalEdgeStyle;rounded=0;orthogonalLoop=1;jettySize=auto;html=1;exitX=0.5;exitY=1;exitDx=0;exitDy=0;entryX=0.5;entryY=0;entryDx=0;entryDy=0;" edge="1" parent="PxeA5dOEUCCF_qrA4TxW-88" source="PxeA5dOEUCCF_qrA4TxW-45" target="PxeA5dOEUCCF_qrA4TxW-67">
          <mxGeometry relative="1" as="geometry" />
        </mxCell>
        <mxCell id="PxeA5dOEUCCF_qrA4TxW-45" value="El transportista factura a Cliente&lt;br&gt;Por tanto se pone el RFC de Cliente" style="rounded=0;whiteSpace=wrap;html=1;fontSize=10;fillColor=#dae8fc;strokeColor=#6c8ebf;" vertex="1" parent="PxeA5dOEUCCF_qrA4TxW-88">
          <mxGeometry x="465" y="530" width="120" height="60" as="geometry" />
        </mxCell>
        <mxCell id="PxeA5dOEUCCF_qrA4TxW-62" style="edgeStyle=orthogonalEdgeStyle;rounded=0;orthogonalLoop=1;jettySize=auto;html=1;exitX=0.5;exitY=1;exitDx=0;exitDy=0;" edge="1" parent="PxeA5dOEUCCF_qrA4TxW-88" source="PxeA5dOEUCCF_qrA4TxW-59" target="PxeA5dOEUCCF_qrA4TxW-61">
          <mxGeometry relative="1" as="geometry" />
        </mxCell>
        <mxCell id="PxeA5dOEUCCF_qrA4TxW-59" value="Se ingresa Tipo de Unidad" style="rounded=0;whiteSpace=wrap;html=1;fillColor=#dae8fc;strokeColor=#6c8ebf;" vertex="1" parent="PxeA5dOEUCCF_qrA4TxW-88">
          <mxGeometry x="317.5" y="620" width="120" height="60" as="geometry" />
        </mxCell>
        <mxCell id="PxeA5dOEUCCF_qrA4TxW-64" style="edgeStyle=orthogonalEdgeStyle;rounded=0;orthogonalLoop=1;jettySize=auto;html=1;exitX=0.5;exitY=1;exitDx=0;exitDy=0;entryX=0.5;entryY=0;entryDx=0;entryDy=0;" edge="1" parent="PxeA5dOEUCCF_qrA4TxW-88" source="PxeA5dOEUCCF_qrA4TxW-61" target="PxeA5dOEUCCF_qrA4TxW-63">
          <mxGeometry relative="1" as="geometry" />
        </mxCell>
        <mxCell id="PxeA5dOEUCCF_qrA4TxW-61" value="Se ingresa Destino" style="rounded=0;whiteSpace=wrap;html=1;fillColor=#dae8fc;strokeColor=#6c8ebf;" vertex="1" parent="PxeA5dOEUCCF_qrA4TxW-88">
          <mxGeometry x="317.5" y="700" width="120" height="60" as="geometry" />
        </mxCell>
        <mxCell id="PxeA5dOEUCCF_qrA4TxW-66" style="edgeStyle=orthogonalEdgeStyle;rounded=0;orthogonalLoop=1;jettySize=auto;html=1;exitX=0.5;exitY=1;exitDx=0;exitDy=0;entryX=0.5;entryY=0;entryDx=0;entryDy=0;" edge="1" parent="PxeA5dOEUCCF_qrA4TxW-88" source="PxeA5dOEUCCF_qrA4TxW-63" target="PxeA5dOEUCCF_qrA4TxW-65">
          <mxGeometry relative="1" as="geometry" />
        </mxCell>
        <mxCell id="PxeA5dOEUCCF_qrA4TxW-63" value="Se ingresa si es IMO" style="rounded=0;whiteSpace=wrap;html=1;fillColor=#dae8fc;strokeColor=#6c8ebf;" vertex="1" parent="PxeA5dOEUCCF_qrA4TxW-88">
          <mxGeometry x="317.5" y="780" width="120" height="60" as="geometry" />
        </mxCell>
        <mxCell id="PxeA5dOEUCCF_qrA4TxW-73" style="edgeStyle=orthogonalEdgeStyle;rounded=0;orthogonalLoop=1;jettySize=auto;html=1;exitX=0.5;exitY=1;exitDx=0;exitDy=0;entryX=0;entryY=0.5;entryDx=0;entryDy=0;" edge="1" parent="PxeA5dOEUCCF_qrA4TxW-88" source="PxeA5dOEUCCF_qrA4TxW-65" target="PxeA5dOEUCCF_qrA4TxW-71">
          <mxGeometry relative="1" as="geometry" />
        </mxCell>
        <mxCell id="PxeA5dOEUCCF_qrA4TxW-65" value="Se ingresa el Domicilio Fiscal del que se va a ingresar en la Factura del Transporte (Alcance)" style="rounded=0;whiteSpace=wrap;html=1;fillColor=#dae8fc;strokeColor=#6c8ebf;" vertex="1" parent="PxeA5dOEUCCF_qrA4TxW-88">
          <mxGeometry x="317.5" y="860" width="120" height="90" as="geometry" />
        </mxCell>
        <mxCell id="PxeA5dOEUCCF_qrA4TxW-72" style="edgeStyle=orthogonalEdgeStyle;rounded=0;orthogonalLoop=1;jettySize=auto;html=1;exitX=0.5;exitY=1;exitDx=0;exitDy=0;" edge="1" parent="PxeA5dOEUCCF_qrA4TxW-88" source="PxeA5dOEUCCF_qrA4TxW-67" target="PxeA5dOEUCCF_qrA4TxW-71">
          <mxGeometry relative="1" as="geometry" />
        </mxCell>
        <mxCell id="PxeA5dOEUCCF_qrA4TxW-67" value="Se ingresa el Domicilio Fiscal del&amp;nbsp; Cliente" style="rounded=0;whiteSpace=wrap;html=1;fillColor=#dae8fc;strokeColor=#6c8ebf;" vertex="1" parent="PxeA5dOEUCCF_qrA4TxW-88">
          <mxGeometry x="540" y="620" width="120" height="60" as="geometry" />
        </mxCell>
        <mxCell id="PxeA5dOEUCCF_qrA4TxW-75" style="edgeStyle=orthogonalEdgeStyle;rounded=0;orthogonalLoop=1;jettySize=auto;html=1;exitX=0.5;exitY=1;exitDx=0;exitDy=0;" edge="1" parent="PxeA5dOEUCCF_qrA4TxW-88" source="PxeA5dOEUCCF_qrA4TxW-71" target="PxeA5dOEUCCF_qrA4TxW-74">
          <mxGeometry relative="1" as="geometry" />
        </mxCell>
        <mxCell id="PxeA5dOEUCCF_qrA4TxW-71" value="Se ingresa Marcas, Bulto y Pesos" style="rounded=0;whiteSpace=wrap;html=1;fillColor=#dae8fc;strokeColor=#6c8ebf;" vertex="1" parent="PxeA5dOEUCCF_qrA4TxW-88">
          <mxGeometry x="540" y="720" width="120" height="60" as="geometry" />
        </mxCell>
        <mxCell id="PxeA5dOEUCCF_qrA4TxW-77" style="edgeStyle=orthogonalEdgeStyle;rounded=0;orthogonalLoop=1;jettySize=auto;html=1;exitX=0.5;exitY=1;exitDx=0;exitDy=0;" edge="1" parent="PxeA5dOEUCCF_qrA4TxW-88" source="PxeA5dOEUCCF_qrA4TxW-74" target="PxeA5dOEUCCF_qrA4TxW-76">
          <mxGeometry relative="1" as="geometry" />
        </mxCell>
        <mxCell id="PxeA5dOEUCCF_qrA4TxW-74" value="Se ingresa resumen de Mercancía" style="rounded=0;whiteSpace=wrap;html=1;fillColor=#dae8fc;strokeColor=#6c8ebf;" vertex="1" parent="PxeA5dOEUCCF_qrA4TxW-88">
          <mxGeometry x="540" y="800" width="120" height="60" as="geometry" />
        </mxCell>
        <mxCell id="PxeA5dOEUCCF_qrA4TxW-79" style="edgeStyle=orthogonalEdgeStyle;rounded=0;orthogonalLoop=1;jettySize=auto;html=1;exitX=1;exitY=0.5;exitDx=0;exitDy=0;entryX=0;entryY=0.5;entryDx=0;entryDy=0;" edge="1" parent="PxeA5dOEUCCF_qrA4TxW-88" source="PxeA5dOEUCCF_qrA4TxW-76" target="PxeA5dOEUCCF_qrA4TxW-78">
          <mxGeometry relative="1" as="geometry" />
        </mxCell>
        <mxCell id="PxeA5dOEUCCF_qrA4TxW-76" value="Se ingresa Indicaciones de Entrega" style="rounded=0;whiteSpace=wrap;html=1;fillColor=#dae8fc;strokeColor=#6c8ebf;" vertex="1" parent="PxeA5dOEUCCF_qrA4TxW-88">
          <mxGeometry x="540" y="880" width="120" height="60" as="geometry" />
        </mxCell>
        <mxCell id="PxeA5dOEUCCF_qrA4TxW-81" style="edgeStyle=orthogonalEdgeStyle;rounded=0;orthogonalLoop=1;jettySize=auto;html=1;exitX=0.5;exitY=0;exitDx=0;exitDy=0;entryX=0.5;entryY=1;entryDx=0;entryDy=0;" edge="1" parent="PxeA5dOEUCCF_qrA4TxW-88" source="PxeA5dOEUCCF_qrA4TxW-78" target="PxeA5dOEUCCF_qrA4TxW-80">
          <mxGeometry relative="1" as="geometry" />
        </mxCell>
        <mxCell id="PxeA5dOEUCCF_qrA4TxW-78" value="Se ingresa Recinto Fiscal" style="rounded=0;whiteSpace=wrap;html=1;fillColor=#dae8fc;strokeColor=#6c8ebf;" vertex="1" parent="PxeA5dOEUCCF_qrA4TxW-88">
          <mxGeometry x="697" y="880" width="120" height="60" as="geometry" />
        </mxCell>
        <mxCell id="PxeA5dOEUCCF_qrA4TxW-84" style="edgeStyle=orthogonalEdgeStyle;rounded=0;orthogonalLoop=1;jettySize=auto;html=1;exitX=0.5;exitY=0;exitDx=0;exitDy=0;entryX=0.5;entryY=1;entryDx=0;entryDy=0;" edge="1" parent="PxeA5dOEUCCF_qrA4TxW-88" source="PxeA5dOEUCCF_qrA4TxW-80" target="PxeA5dOEUCCF_qrA4TxW-82">
          <mxGeometry relative="1" as="geometry" />
        </mxCell>
        <mxCell id="PxeA5dOEUCCF_qrA4TxW-80" value="Se ingresa el sello&lt;div&gt;del contenedor&lt;/div&gt;" style="rounded=0;whiteSpace=wrap;html=1;fillColor=#dae8fc;strokeColor=#6c8ebf;" vertex="1" parent="PxeA5dOEUCCF_qrA4TxW-88">
          <mxGeometry x="697" y="800" width="120" height="60" as="geometry" />
        </mxCell>
        <mxCell id="PxeA5dOEUCCF_qrA4TxW-85" style="edgeStyle=orthogonalEdgeStyle;rounded=0;orthogonalLoop=1;jettySize=auto;html=1;exitX=0.5;exitY=0;exitDx=0;exitDy=0;entryX=0.5;entryY=1;entryDx=0;entryDy=0;" edge="1" parent="PxeA5dOEUCCF_qrA4TxW-88" source="PxeA5dOEUCCF_qrA4TxW-82" target="PxeA5dOEUCCF_qrA4TxW-83">
          <mxGeometry relative="1" as="geometry" />
        </mxCell>
        <mxCell id="PxeA5dOEUCCF_qrA4TxW-82" value="Se ingresa Fecha y Hora de Cita" style="rounded=0;whiteSpace=wrap;html=1;fillColor=#dae8fc;strokeColor=#6c8ebf;" vertex="1" parent="PxeA5dOEUCCF_qrA4TxW-88">
          <mxGeometry x="697" y="720" width="120" height="60" as="geometry" />
        </mxCell>
        <mxCell id="PxeA5dOEUCCF_qrA4TxW-92" style="edgeStyle=orthogonalEdgeStyle;rounded=0;orthogonalLoop=1;jettySize=auto;html=1;exitX=0.5;exitY=0;exitDx=0;exitDy=0;entryX=0.5;entryY=1;entryDx=0;entryDy=0;" edge="1" parent="PxeA5dOEUCCF_qrA4TxW-88" source="PxeA5dOEUCCF_qrA4TxW-83" target="PxeA5dOEUCCF_qrA4TxW-91">
          <mxGeometry relative="1" as="geometry" />
        </mxCell>
        <mxCell id="PxeA5dOEUCCF_qrA4TxW-83" value="Se ingresa Fecha y Hora de Entrega" style="rounded=0;whiteSpace=wrap;html=1;fillColor=#dae8fc;strokeColor=#6c8ebf;" vertex="1" parent="PxeA5dOEUCCF_qrA4TxW-88">
          <mxGeometry x="697" y="640" width="120" height="60" as="geometry" />
        </mxCell>
        <mxCell id="PxeA5dOEUCCF_qrA4TxW-1" value="" style="ellipse;whiteSpace=wrap;html=1;aspect=fixed;fillColor=#f8cecc;strokeColor=#b85450;" vertex="1" parent="1">
          <mxGeometry x="80" y="95" width="60" height="60" as="geometry" />
        </mxCell>
        <mxCell id="PxeA5dOEUCCF_qrA4TxW-4" style="edgeStyle=orthogonalEdgeStyle;rounded=0;orthogonalLoop=1;jettySize=auto;html=1;exitX=0.5;exitY=0.5;exitDx=0;exitDy=0;exitPerimeter=0;entryX=0;entryY=0.5;entryDx=0;entryDy=0;" edge="1" parent="1" source="PxeA5dOEUCCF_qrA4TxW-2" target="PxeA5dOEUCCF_qrA4TxW-3">
          <mxGeometry relative="1" as="geometry" />
        </mxCell>
        <mxCell id="PxeA5dOEUCCF_qrA4TxW-2" value="Tramitador" style="shape=umlActor;verticalLabelPosition=bottom;verticalAlign=top;html=1;outlineConnect=0;fillColor=#dae8fc;strokeColor=#6c8ebf;" vertex="1" parent="1">
          <mxGeometry x="190" y="95" width="30" height="60" as="geometry" />
        </mxCell>
        <mxCell id="PxeA5dOEUCCF_qrA4TxW-49" style="edgeStyle=orthogonalEdgeStyle;rounded=0;orthogonalLoop=1;jettySize=auto;html=1;exitX=1;exitY=0.5;exitDx=0;exitDy=0;entryX=0;entryY=0.5;entryDx=0;entryDy=0;" edge="1" parent="1" source="PxeA5dOEUCCF_qrA4TxW-3" target="PxeA5dOEUCCF_qrA4TxW-12">
          <mxGeometry relative="1" as="geometry" />
        </mxCell>
        <mxCell id="PxeA5dOEUCCF_qrA4TxW-3" value="¿Tiene previo Hoy?" style="rhombus;whiteSpace=wrap;html=1;fontSize=10;fillColor=#dae8fc;strokeColor=#6c8ebf;" vertex="1" parent="1">
          <mxGeometry x="300" y="70" width="130" height="110" as="geometry" />
        </mxCell>
        <mxCell id="PxeA5dOEUCCF_qrA4TxW-5" style="edgeStyle=orthogonalEdgeStyle;rounded=0;orthogonalLoop=1;jettySize=auto;html=1;exitX=1;exitY=0.5;exitDx=0;exitDy=0;entryX=0.5;entryY=0.5;entryDx=0;entryDy=0;entryPerimeter=0;" edge="1" parent="1" source="PxeA5dOEUCCF_qrA4TxW-1" target="PxeA5dOEUCCF_qrA4TxW-2">
          <mxGeometry relative="1" as="geometry" />
        </mxCell>
        <mxCell id="PxeA5dOEUCCF_qrA4TxW-24" style="edgeStyle=orthogonalEdgeStyle;rounded=0;orthogonalLoop=1;jettySize=auto;html=1;exitX=0.5;exitY=1;exitDx=0;exitDy=0;entryX=0.5;entryY=0;entryDx=0;entryDy=0;" edge="1" parent="1" source="PxeA5dOEUCCF_qrA4TxW-8" target="PxeA5dOEUCCF_qrA4TxW-10">
          <mxGeometry relative="1" as="geometry" />
        </mxCell>
        <mxCell id="PxeA5dOEUCCF_qrA4TxW-25" style="edgeStyle=orthogonalEdgeStyle;rounded=0;orthogonalLoop=1;jettySize=auto;html=1;exitX=1;exitY=0.5;exitDx=0;exitDy=0;entryX=0.5;entryY=0;entryDx=0;entryDy=0;" edge="1" parent="1" source="PxeA5dOEUCCF_qrA4TxW-8" target="PxeA5dOEUCCF_qrA4TxW-11">
          <mxGeometry relative="1" as="geometry" />
        </mxCell>
        <mxCell id="PxeA5dOEUCCF_qrA4TxW-26" style="edgeStyle=orthogonalEdgeStyle;rounded=0;orthogonalLoop=1;jettySize=auto;html=1;exitX=0;exitY=0.5;exitDx=0;exitDy=0;entryX=0.5;entryY=0;entryDx=0;entryDy=0;" edge="1" parent="1" source="PxeA5dOEUCCF_qrA4TxW-8" target="PxeA5dOEUCCF_qrA4TxW-9">
          <mxGeometry relative="1" as="geometry" />
        </mxCell>
        <mxCell id="PxeA5dOEUCCF_qrA4TxW-8" value="El transportes es puesto por..." style="shape=hexagon;perimeter=hexagonPerimeter2;whiteSpace=wrap;html=1;fixedSize=1;fontSize=10;fillColor=#dae8fc;strokeColor=#6c8ebf;" vertex="1" parent="1">
          <mxGeometry x="447.5" y="310" width="175" height="80" as="geometry" />
        </mxCell>
        <mxCell id="PxeA5dOEUCCF_qrA4TxW-9" value="Agencia Aduanal" style="rounded=0;whiteSpace=wrap;html=1;fontSize=10;fillColor=#dae8fc;strokeColor=#6c8ebf;" vertex="1" parent="1">
          <mxGeometry x="330" y="400" width="120" height="60" as="geometry" />
        </mxCell>
        <mxCell id="PxeA5dOEUCCF_qrA4TxW-10" value="Cliente" style="rounded=0;whiteSpace=wrap;html=1;fontSize=10;fillColor=#dae8fc;strokeColor=#6c8ebf;" vertex="1" parent="1">
          <mxGeometry x="475" y="400" width="120" height="60" as="geometry" />
        </mxCell>
        <mxCell id="PxeA5dOEUCCF_qrA4TxW-95" style="edgeStyle=orthogonalEdgeStyle;rounded=0;orthogonalLoop=1;jettySize=auto;html=1;exitX=0.5;exitY=1;exitDx=0;exitDy=0;" edge="1" parent="1" source="PxeA5dOEUCCF_qrA4TxW-11" target="PxeA5dOEUCCF_qrA4TxW-27">
          <mxGeometry relative="1" as="geometry" />
        </mxCell>
        <mxCell id="PxeA5dOEUCCF_qrA4TxW-11" value="Naviera" style="rounded=0;whiteSpace=wrap;html=1;fontSize=10;fillColor=#dae8fc;strokeColor=#6c8ebf;" vertex="1" parent="1">
          <mxGeometry x="620" y="400" width="120" height="60" as="geometry" />
        </mxCell>
        <mxCell id="PxeA5dOEUCCF_qrA4TxW-17" style="edgeStyle=orthogonalEdgeStyle;rounded=0;orthogonalLoop=1;jettySize=auto;html=1;exitX=1;exitY=0.5;exitDx=0;exitDy=0;entryX=0;entryY=0.5;entryDx=0;entryDy=0;" edge="1" parent="1" source="PxeA5dOEUCCF_qrA4TxW-12" target="PxeA5dOEUCCF_qrA4TxW-14">
          <mxGeometry relative="1" as="geometry" />
        </mxCell>
        <mxCell id="PxeA5dOEUCCF_qrA4TxW-12" value="Selecciona el tipo de Previo Realizado" style="rounded=0;whiteSpace=wrap;html=1;fillColor=#dae8fc;strokeColor=#6c8ebf;" vertex="1" parent="1">
          <mxGeometry x="460" y="95" width="120" height="60" as="geometry" />
        </mxCell>
        <mxCell id="PxeA5dOEUCCF_qrA4TxW-18" style="edgeStyle=orthogonalEdgeStyle;rounded=0;orthogonalLoop=1;jettySize=auto;html=1;exitX=0.5;exitY=1;exitDx=0;exitDy=0;entryX=0.5;entryY=0;entryDx=0;entryDy=0;" edge="1" parent="1" source="PxeA5dOEUCCF_qrA4TxW-14" target="PxeA5dOEUCCF_qrA4TxW-16">
          <mxGeometry relative="1" as="geometry">
            <mxPoint x="685" y="180" as="targetPoint" />
          </mxGeometry>
        </mxCell>
        <mxCell id="PxeA5dOEUCCF_qrA4TxW-19" style="edgeStyle=orthogonalEdgeStyle;rounded=0;orthogonalLoop=1;jettySize=auto;html=1;exitX=1;exitY=0.5;exitDx=0;exitDy=0;entryX=0;entryY=0.5;entryDx=0;entryDy=0;" edge="1" parent="1" source="PxeA5dOEUCCF_qrA4TxW-14" target="PxeA5dOEUCCF_qrA4TxW-15">
          <mxGeometry relative="1" as="geometry">
            <mxPoint x="770" y="125" as="targetPoint" />
          </mxGeometry>
        </mxCell>
        <mxCell id="PxeA5dOEUCCF_qrA4TxW-14" value="¿Tipo de Previo&lt;br&gt;Express?" style="rhombus;whiteSpace=wrap;html=1;fillColor=#dae8fc;strokeColor=#6c8ebf;" vertex="1" parent="1">
          <mxGeometry x="625" y="85" width="120" height="80" as="geometry" />
        </mxCell>
        <mxCell id="PxeA5dOEUCCF_qrA4TxW-55" style="edgeStyle=orthogonalEdgeStyle;rounded=0;orthogonalLoop=1;jettySize=auto;html=1;exitX=0.5;exitY=1;exitDx=0;exitDy=0;entryX=1;entryY=0.5;entryDx=0;entryDy=0;" edge="1" parent="1" source="PxeA5dOEUCCF_qrA4TxW-15" target="PxeA5dOEUCCF_qrA4TxW-52">
          <mxGeometry relative="1" as="geometry">
            <Array as="points">
              <mxPoint x="840" y="270" />
              <mxPoint x="480" y="270" />
              <mxPoint x="480" y="250" />
            </Array>
          </mxGeometry>
        </mxCell>
        <mxCell id="PxeA5dOEUCCF_qrA4TxW-15" value="Selecciona el Previo Express" style="rounded=0;whiteSpace=wrap;html=1;fillColor=#dae8fc;strokeColor=#6c8ebf;" vertex="1" parent="1">
          <mxGeometry x="780" y="95" width="120" height="60" as="geometry" />
        </mxCell>
        <mxCell id="PxeA5dOEUCCF_qrA4TxW-53" style="edgeStyle=orthogonalEdgeStyle;rounded=0;orthogonalLoop=1;jettySize=auto;html=1;exitX=0.5;exitY=1;exitDx=0;exitDy=0;entryX=0.5;entryY=0;entryDx=0;entryDy=0;" edge="1" parent="1" source="PxeA5dOEUCCF_qrA4TxW-16" target="PxeA5dOEUCCF_qrA4TxW-52">
          <mxGeometry relative="1" as="geometry">
            <Array as="points">
              <mxPoint x="685" y="270" />
              <mxPoint x="480" y="270" />
              <mxPoint x="480" y="190" />
              <mxPoint x="240" y="190" />
            </Array>
          </mxGeometry>
        </mxCell>
        <mxCell id="PxeA5dOEUCCF_qrA4TxW-16" value="Selecciona el Previo Normal" style="rounded=0;whiteSpace=wrap;html=1;fillColor=#dae8fc;strokeColor=#6c8ebf;" vertex="1" parent="1">
          <mxGeometry x="625" y="190" width="120" height="60" as="geometry" />
        </mxCell>
        <mxCell id="PxeA5dOEUCCF_qrA4TxW-34" style="edgeStyle=orthogonalEdgeStyle;rounded=0;orthogonalLoop=1;jettySize=auto;html=1;entryX=0.5;entryY=0;entryDx=0;entryDy=0;exitX=0.5;exitY=1;exitDx=0;exitDy=0;" edge="1" parent="1" source="PxeA5dOEUCCF_qrA4TxW-10" target="PxeA5dOEUCCF_qrA4TxW-20">
          <mxGeometry relative="1" as="geometry">
            <mxPoint x="535" y="560" as="sourcePoint" />
          </mxGeometry>
        </mxCell>
        <mxCell id="PxeA5dOEUCCF_qrA4TxW-36" style="edgeStyle=orthogonalEdgeStyle;rounded=0;orthogonalLoop=1;jettySize=auto;html=1;entryX=0.5;entryY=0;entryDx=0;entryDy=0;exitX=0.5;exitY=1;exitDx=0;exitDy=0;" edge="1" parent="1" source="PxeA5dOEUCCF_qrA4TxW-9" target="PxeA5dOEUCCF_qrA4TxW-22">
          <mxGeometry relative="1" as="geometry">
            <mxPoint x="520" y="530" as="sourcePoint" />
          </mxGeometry>
        </mxCell>
        <mxCell id="PxeA5dOEUCCF_qrA4TxW-57" style="edgeStyle=orthogonalEdgeStyle;rounded=0;orthogonalLoop=1;jettySize=auto;html=1;exitX=0.5;exitY=1;exitDx=0;exitDy=0;entryX=0.5;entryY=0;entryDx=0;entryDy=0;" edge="1" parent="1" source="PxeA5dOEUCCF_qrA4TxW-52" target="PxeA5dOEUCCF_qrA4TxW-56">
          <mxGeometry relative="1" as="geometry" />
        </mxCell>
        <mxCell id="PxeA5dOEUCCF_qrA4TxW-52" value="Registro del Numero de Pedimento&lt;br&gt;Compuesto por Patente y Consecutivo" style="rounded=0;whiteSpace=wrap;html=1;fillColor=#dae8fc;strokeColor=#6c8ebf;" vertex="1" parent="1">
          <mxGeometry x="150" y="210" width="180" height="80" as="geometry" />
        </mxCell>
        <mxCell id="PxeA5dOEUCCF_qrA4TxW-58" style="edgeStyle=orthogonalEdgeStyle;rounded=0;orthogonalLoop=1;jettySize=auto;html=1;exitX=1;exitY=0.5;exitDx=0;exitDy=0;entryX=0.5;entryY=0;entryDx=0;entryDy=0;" edge="1" parent="1" source="PxeA5dOEUCCF_qrA4TxW-56" target="PxeA5dOEUCCF_qrA4TxW-8">
          <mxGeometry relative="1" as="geometry">
            <Array as="points">
              <mxPoint x="360" y="350" />
              <mxPoint x="360" y="310" />
              <mxPoint x="400" y="310" />
              <mxPoint x="400" y="290" />
              <mxPoint x="535" y="290" />
            </Array>
          </mxGeometry>
        </mxCell>
        <mxCell id="PxeA5dOEUCCF_qrA4TxW-56" value="Se ingresa Nombre del Cliente y Nombre de Ejecutiva" style="rounded=0;whiteSpace=wrap;html=1;fillColor=#dae8fc;strokeColor=#6c8ebf;" vertex="1" parent="1">
          <mxGeometry x="150" y="320" width="180" height="60" as="geometry" />
        </mxCell>
      </root>
    </mxGraphModel>
  </diagram>
</mxfile>
